<?xml version="1.0" standalone="no"?>
<!DOCTYPE svg PUBLIC "-//W3C//DTD SVG 20010904//EN"
 "http://www.w3.org/TR/2001/REC-SVG-20010904/DTD/svg10.dtd">
<svg version="1.0" xmlns="http://www.w3.org/2000/svg"
 width="970.000000pt" height="970.000000pt" viewBox="0 0 970.000000 970.000000"
 preserveAspectRatio="xMidYMid meet">
<metadata>
Created by potrace 1.11, written by Peter Selinger 2001-2013
</metadata>
<g transform="translate(0.000000,970.000000) scale(0.100000,-0.100000)"
fill="#000000" stroke="none">
<path d="M7928 7483 c-2 -5 -3 -386 -3 -848 1 -668 -1 -841 -11 -845 -7 -3
-125 -4 -262 -2 l-248 3 1 502 c0 364 -3 515 -12 551 -42 166 -214 296 -428
323 -68 8 -1786 8 -1854 -1 -67 -8 -176 -45 -233 -79 -96 -57 -179 -168 -194
-262 -4 -22 -7 -284 -7 -582 0 -383 -4 -543 -11 -543 -16 -1 -1823 -1 -1877 0
-39 0 -47 4 -57 25 -18 38 -98 85 -146 85 -89 0 -171 -74 -179 -161 -5 -52 20
-115 60 -149 36 -32 43 -47 215 -445 33 -77 68 -158 78 -180 10 -22 41 -94 70
-160 28 -66 58 -133 65 -150 32 -69 167 -381 172 -397 4 -12 0 -18 -12 -18
-11 0 -15 -5 -12 -14 8 -21 13 -17 -238 -231 -137 -117 -120 -108 -176 -100
-96 13 -134 -9 -403 -238 -91 -77 -87 -77 -81 -5 6 70 6 391 0 453 -2 22 -6
60 -9 85 -3 25 -8 65 -12 89 -3 25 -7 47 -8 50 -2 3 -7 28 -10 55 -4 27 -9 52
-11 56 -2 4 -6 19 -9 34 -15 84 -83 279 -128 370 -76 151 -192 283 -290 329
-71 34 -154 46 -171 24 -8 -10 -37 -17 -87 -22 -41 -3 -84 -8 -95 -10 -11 -2
-30 -4 -42 -4 -23 -1 -25 -4 -128 -226 -18 -38 -49 -105 -69 -147 -20 -43 -51
-111 -70 -150 -18 -40 -56 -120 -84 -178 -47 -99 -70 -150 -147 -315 -18 -38
-56 -119 -85 -180 -29 -60 -65 -137 -80 -170 -15 -33 -46 -98 -68 -145 -22
-47 -87 -186 -145 -310 -256 -550 -333 -713 -359 -763 l-19 -38 73 7 c40 3 84
7 98 8 144 15 276 19 710 19 359 -1 518 -4 549 -12 181 -50 374 86 510 357
l31 62 23 -21 c67 -64 146 -100 226 -104 69 -4 98 13 267 155 86 72 301 249
323 265 109 81 142 140 136 242 -3 61 -2 64 31 93 19 16 38 30 42 30 4 0 7
-153 7 -341 0 -187 3 -343 8 -346 7 -4 264 -7 349 -4 17 1 18 34 17 511 0 409
3 513 13 523 8 7 43 37 78 67 36 30 67 57 70 60 3 3 50 43 105 89 55 47 107
92 116 100 9 9 112 97 229 196 116 99 233 199 259 223 l46 43 305 -4 c325 -5
339 -6 470 -43 312 -89 588 -321 738 -619 45 -90 65 -144 94 -260 27 -111 35
-340 15 -455 -20 -114 -26 -140 -38 -162 -5 -10 -8 -18 -5 -18 3 0 -6 -27 -20
-60 -13 -33 -24 -63 -24 -68 0 -4 203 -8 450 -8 248 0 450 1 450 2 0 1 -16 49
-35 107 -76 226 -89 441 -40 653 66 288 254 567 485 721 139 93 320 171 439
189 20 3 53 9 74 14 66 14 324 6 410 -14 242 -54 470 -180 618 -341 83 -92 99
-110 99 -116 0 -3 11 -19 25 -35 39 -45 133 -240 161 -334 30 -105 29 -100 50
-280 l5 -45 -24 35 c-27 38 -72 80 -86 80 -5 0 -19 33 -31 73 -12 39 -42 115
-68 167 -43 89 -47 100 -47 175 0 92 -17 135 -73 190 -57 55 -144 80 -221 64
-29 -6 -46 -2 -105 31 -66 36 -214 92 -244 93 -7 0 -23 14 -35 31 -108 152
-318 156 -419 8 -11 -17 -47 -34 -117 -57 -98 -34 -177 -69 -215 -98 -15 -11
-29 -12 -60 -5 -76 17 -161 -6 -219 -61 -51 -47 -71 -98 -72 -182 -1 -70 -5
-83 -53 -180 -29 -57 -61 -135 -72 -173 -16 -56 -27 -75 -61 -104 -116 -100
-116 -269 0 -375 22 -21 41 -44 41 -53 0 -32 65 -203 102 -268 35 -62 39 -78
41 -145 3 -101 35 -158 117 -208 37 -22 103 -37 157 -34 21 1 60 -14 115 -43
85 -45 216 -94 262 -98 14 -1 26 -5 26 -9 0 -3 16 -22 36 -42 105 -104 261
-101 364 9 22 24 47 44 54 44 46 0 262 90 314 131 18 14 36 17 70 14 26 -2 71
3 100 11 104 29 182 148 169 257 -5 36 1 55 38 127 40 79 95 225 95 252 0 7
20 31 45 54 30 27 45 36 45 25 0 -25 -25 -109 -54 -185 -14 -37 -26 -69 -26
-71 0 -1 35 -1 78 0 186 5 348 102 447 267 72 121 69 91 72 808 2 708 3 693
-59 820 -65 133 -222 256 -353 277 -16 3 -32 6 -33 8 -2 2 10 23 26 47 122
177 52 447 -141 542 -84 41 -121 46 -319 43 -161 -2 -188 0 -189 13 0 8 -1
392 -1 853 l-1 837 -273 0 c-150 0 -274 -3 -276 -7z m-1797 -511 c70 -42 66
17 65 -1010 -1 -869 -2 -930 -19 -955 -19 -29 -60 -60 -86 -64 -21 -3 -195 -5
-546 -4 -154 0 -308 0 -342 -1 -33 0 -65 2 -70 5 -8 5 -12 2052 -5 2052 1 0
219 0 485 0 481 0 482 0 518 -23z m1066 -38 c15 -9 37 -28 48 -43 19 -25 20
-44 23 -486 3 -508 3 -502 -61 -549 -28 -20 -40 -21 -399 -22 -411 0 -412 0
-455 64 -22 34 -22 35 -23 484 0 433 0 453 20 493 36 74 36 74 452 74 321 1
370 -1 395 -15z m-2520 -1614 l0 -290 -668 0 -669 0 -1 -22 c0 -13 -2 -94 -2
-180 l-2 -158 179 -2 179 -3 -134 -115 c-74 -63 -139 -119 -145 -125 -62 -56
-147 -124 -156 -125 -3 0 -19 32 -34 71 -15 38 -31 72 -36 75 -4 3 -8 11 -8
19 0 7 -15 46 -34 87 -18 40 -84 190 -146 333 -62 143 -126 288 -141 323 -16
34 -29 65 -29 68 0 3 -11 29 -24 57 -87 187 -85 180 -64 240 l13 37 961 0 960
0 1 -290z m3372 -1354 c197 -45 368 -203 429 -396 25 -78 32 -179 19 -270 -21
-152 -108 -293 -241 -389 -100 -72 -185 -100 -317 -106 -235 -11 -441 107
-547 314 -50 97 -70 183 -66 291 3 94 5 103 29 175 83 246 350 420 603 394 37
-4 78 -10 91 -13z"/>
<path d="M7870 3627 c-108 -22 -180 -110 -186 -225 -3 -74 15 -125 63 -176
123 -129 340 -87 402 78 68 183 -87 364 -279 323z"/>
<path d="M4660 4529 c-52 -24 -86 -53 -106 -91 -8 -16 -21 -28 -28 -28 -29 0
-186 -59 -258 -97 -61 -31 -81 -37 -104 -31 -73 20 -182 -15 -237 -76 -38 -42
-48 -66 -61 -155 -2 -8 0 -31 4 -52 4 -21 4 -42 0 -46 -28 -30 -121 -237 -134
-298 -7 -30 -18 -55 -27 -55 -5 0 -23 -15 -40 -32 -105 -109 -91 -286 29 -370
12 -8 28 -44 41 -93 12 -44 47 -130 77 -191 48 -99 54 -117 51 -163 -2 -28 0
-54 5 -57 4 -3 6 -9 4 -13 -10 -16 52 -107 91 -135 47 -33 144 -57 183 -46 18
5 34 1 55 -14 45 -32 183 -93 263 -115 57 -15 80 -28 117 -65 58 -56 126 -81
200 -73 67 7 106 27 159 83 23 24 49 44 58 44 42 0 213 69 293 118 31 20 54
25 110 27 153 4 249 103 247 254 -1 53 4 74 24 111 38 67 78 167 99 243 10 37
21 67 25 67 4 0 24 17 45 37 101 98 104 252 6 352 -15 16 -37 34 -48 39 -13 7
-26 34 -38 78 -10 36 -42 114 -70 171 -42 83 -51 111 -45 132 9 34 2 106 -14
146 -8 17 -28 48 -45 68 -47 52 -78 66 -186 81 -11 2 -34 -1 -52 -6 -26 -7
-39 -4 -70 15 -50 31 -162 80 -238 102 -49 15 -66 25 -90 59 -66 89 -193 121
-295 75z m265 -570 c60 -16 154 -66 211 -112 137 -112 214 -277 214 -457 0
-157 -59 -301 -169 -411 -146 -145 -340 -205 -537 -165 -186 37 -331 150 -414
321 -49 102 -60 156 -56 280 3 105 17 163 63 250 93 176 270 296 462 312 36 3
67 7 69 8 4 3 113 -15 157 -26z"/>
<path d="M4693 3623 c-131 -44 -201 -200 -145 -326 40 -90 104 -136 201 -144
59 -5 76 -2 124 20 115 53 171 194 122 311 -48 114 -186 177 -302 139z"/>
</g>
</svg>
