<?xml version="1.0" encoding="UTF-8"?>
<svg xmlns="http://www.w3.org/2000/svg" id="Layer_3" data-name="Layer 3" viewBox="0 0 64 64" width="512" height="512" fill="#f7a311"><path d="M62,29H57V24a1,1,0,0,0-1-1H53V20a1,1,0,0,0-1-1H44a1,1,0,0,0-1,1v3H40a1,1,0,0,0-1,1v5H33V24a1,1,0,0,0-1-1H31V22a3,3,0,0,0-3-3H23V17h7a1,1,0,0,0,1-1V2a1,1,0,0,0-1-1H8A1,1,0,0,0,7,2V16a1,1,0,0,0,1,1h7v2H10a3,3,0,0,0-3,3v1H6a1,1,0,0,0-1,1v5H2a1,1,0,0,0-1,1v6a1,1,0,0,0,1,1H5V62a1,1,0,0,0,1,1H58a1,1,0,0,0,1-1V37h3a1,1,0,0,0,1-1V30A1,1,0,0,0,62,29ZM45,21h6v2H45Zm-4,4H55v4H41ZM9,15V3H29V15H23V10a1,1,0,0,0-1-1H16a1,1,0,0,0-1,1v5Zm8-4h4v8H17ZM9,22a1,1,0,0,1,1-1H28a1,1,0,0,1,1,1v1H9ZM7,25H31v4H7ZM22.461,52H7V46H22.461a9.992,9.992,0,0,0,0,6ZM7,61V54H23.353a9.977,9.977,0,0,0,17.294,0H57v7ZM24,49a8,8,0,1,1,8,8A8.009,8.009,0,0,1,24,49Zm17.539-3H57v6H41.539a9.992,9.992,0,0,0,0-6ZM57,44H40.647a9.977,9.977,0,0,0-17.294,0H7V37H57Zm4-9H3V31H61Z"/><path d="M31,55v1h2V55a3,3,0,0,0,3-3V51a3,3,0,0,0-3-3V45a1,1,0,0,1,1,1v1h2V46a3,3,0,0,0-3-3V42H31v1a3,3,0,0,0-3,3v1a3,3,0,0,0,3,3v3a1,1,0,0,1-1-1V51H28v1A3,3,0,0,0,31,55Zm-1-8V46a1,1,0,0,1,1-1v3A1,1,0,0,1,30,47Zm3,3a1,1,0,0,1,1,1v1a1,1,0,0,1-1,1Z"/></svg>
