<?xml version="1.0" encoding="utf-8"?>
<!-- Generator: Adobe Illustrator 24.1.2, SVG Export Plug-In . SVG Version: 6.00 Build 0)  -->
<svg version="1.1" id="Слой_1" xmlns="http://www.w3.org/2000/svg" xmlns:xlink="http://www.w3.org/1999/xlink" x="0px" y="0px"
	 viewBox="0 0 532 532" style="enable-background:new 0 0 532 532;" xml:space="preserve">
<style type="text/css">
	.st0{fill:none;stroke:#f7a311;stroke-width:20;stroke-miterlimit:10;}
	.st1{stroke:#f7a311;stroke-width:20;stroke-linecap:round;stroke-miterlimit:10;}
	.st2{stroke:#f7a311;stroke-width:12;stroke-linecap:round;stroke-miterlimit:10;}
	.st3{fill:#f7a311;}
</style>
<path class="st0" d="M266,10L266,10C124.6,10,10,124.6,10,266v0c0,141.4,114.6,256,256,256h0c141.4,0,256-114.6,256-256v0
	C522,124.6,407.4,10,266,10z"/>
<g>
	<g>
		<line class="st1" x1="266" y1="15.1" x2="266" y2="68.9"/>
		<line class="st2" x1="140.6" y1="48.8" x2="157.9" y2="78.8"/>
		<line class="st2" x1="48.8" y1="140.6" x2="82.5" y2="160.1"/>
		<line class="st1" x1="15.1" y1="266" x2="68.9" y2="266"/>
		<line class="st2" x1="48.8" y1="391.4" x2="82.5" y2="371.9"/>
		<line class="st2" x1="140.6" y1="483.2" x2="159.5" y2="450.4"/>
		<line class="st1" x1="266" y1="516.9" x2="266" y2="463.1"/>
		<line class="st2" x1="391.4" y1="483.2" x2="372.9" y2="451.2"/>
		<line class="st2" x1="483.2" y1="391.4" x2="453.5" y2="374.3"/>
		<line class="st1" x1="516.9" y1="266" x2="463.1" y2="266"/>
		<line class="st2" x1="483.2" y1="140.6" x2="449.5" y2="160.1"/>
		<line class="st2" x1="391.4" y1="48.8" x2="373" y2="80.7"/>
		<line class="st1" x1="15.1" y1="266" x2="68.9" y2="266"/>
		<line class="st1" x1="266" y1="516.9" x2="266" y2="463.1"/>
		<line class="st1" x1="516.9" y1="266" x2="463.1" y2="266"/>
	</g>
	<circle class="st2" cx="266" cy="266" r="19.2"/>
	<line class="st2" x1="266" y1="93.3" x2="266" y2="224.2"/>
	<line class="st2" x1="296.9" y1="240.4" x2="359.6" y2="177.7"/>
</g>
<g>
	<path class="st3" d="M170.8,329.7c0,20.4-14.6,47.7-43.7,81.7h16.6c2.5,0,6.7-0.3,12.4-0.8c2.2-0.2,5.2-0.6,9-1.2
		c-0.9,2.9-2.3,7.7-4.2,14.4c-0.9,3.5-2.2,8.4-3.8,14.8H94.1l-4.4-10c9.8-17.1,16.4-29.9,20.1-38.6c4.8-11.5,7.2-21.7,7.2-30.7
		c0-6.4-1.9-11.3-5.9-14.6c-3.3-2.8-7.1-4.2-11.5-4.2c-4.3,0-8.5,1-12.6,3l4.6-52.5c9.8-3.5,20.1-5.3,31.2-5.3
		c14.5,0,26.1,4,34.8,12.1C166.4,305.9,170.8,316.5,170.8,329.7z"/>
	<path class="st3" d="M288,389.6l-3.1,11.8c-0.9,3.3-2,7.6-3.2,13h-14.2c-0.1,9-0.2,17.1-0.2,24.2h-40.7c0-6.8-0.2-14.8-0.5-24.2
		h-53.9c6.8-12.3,11.2-20.8,13.3-25.6c3.1-6.8,6.1-15.6,9.2-26.2c2.8-9.8,3.9-21.8,3.2-36h25.9c-0.4-12.2-0.9-24.9-1.7-38h49.1
		c-0.7,16.3-1.7,42.9-2.9,79.8c-0.3,5.2-0.6,13-0.9,23.4h1.3c6.2,0,10.3-0.1,12.4-0.4C283.1,391.2,285.4,390.6,288,389.6z
		 M226.2,391.7c-0.2-9.8-0.5-21.7-0.8-35.8c-5.2,15.4-10.5,27.3-16,35.8H226.2z"/>
	<path class="st3" d="M370,284.6l-66.1,168.8l-19.8-5.3c4.7-12.9,15.3-43.1,31.8-90.5c7.5-22.1,16.1-49.5,25.5-82.2L370,284.6z"/>
	<path class="st3" d="M477.6,297.4c-3.8,7.3-7.5,14.4-10.9,21.3c-8.1,16.7-14.4,31.2-18.8,43.6c-8.6,24.2-16,50.3-22.1,78.1
		l-32.4-1.8c2.7-18.6,6.2-37.9,10.6-58c3.9-17.8,7.7-32.4,11.3-43.8c-3.4,0.1-9.2,0.3-17.3,0.8c-8.1,0.5-14.1,1.2-18.2,2.1l-2-51.2
		l92.3,0.4L477.6,297.4z"/>
</g>
</svg>
