<?xml version="1.0"?>
<svg xmlns="http://www.w3.org/2000/svg" width="512" height="512" viewBox="0 0 512 512" fill="#f7a311"><path d="M383.779,232a8,8,0,0,1-8,8c-10.6-.392-10.6-15.61,0-16A8,8,0,0,1,383.779,232ZM496,248c0,46.121,0,122.471,0,168a8,8,0,0,1-2.343,5.657L488,427.313v17.374l5.657,5.656c4.994,4.88,1.391,13.755-5.657,13.657H392a8,8,0,0,1-8-8v-8a56,56,0,0,0-112,0v8a8,8,0,0,1-8,8H216a8,8,0,0,1-8-8V432H184a7.955,7.955,0,0,1-4-1.079A8.032,8.032,0,0,1,168,424v-4.687L164.687,416H147.739c27.538,30.271,5.591,80.147-35.74,80-41.328.148-63.278-49.737-35.738-80H59.313L56,419.313V472a8,8,0,0,1-16,0V416H32a8,8,0,0,1-8-8V384a8,8,0,0,1-8-8V328c0-23.728,0-114.146,0-136,0-23.137,0-114.57,0-136a8,8,0,0,1,8-8H208.805A40.068,40.068,0,0,1,248,16H408a40.039,40.039,0,0,1,39.972,38.906L495.761,246.06A9.577,9.577,0,0,1,496,248Zm-16,96H464v40h16ZM256,64v49.724A92.272,92.272,0,0,1,327.78,80c50.067,0,75.6,16.636,76.658,17.344A8,8,0,0,1,408,104v29.365a80.136,80.136,0,0,1,15.52,42.981,19.787,19.787,0,0,1,7.017,2.784L401.754,64ZM394.831,216H343.778v44.686l12.862,12.861a67.366,67.366,0,0,0,14.831-9.583,7.968,7.968,0,0,1-4.874-2.276.237.237,0,0,0-.3,0c-7.784,7.186-18.524-3.669-11.252-11.376a16.281,16.281,0,0,1,17.182-3.613,16.364,16.364,0,0,1,13.278.773A65.263,65.263,0,0,0,394.831,216Zm-111.4,47.457,20.357-20.128L276.464,216h-15.75A66.2,66.2,0,0,0,283.436,263.457Zm56.005,15.521-24.335-24.336L296.947,272.6A67.788,67.788,0,0,0,339.441,278.978Zm-11.663-34.292V216H308.657a8.036,8.036,0,0,0,1.639,9.173L321.847,236.6a7.994,7.994,0,0,1,2.261,4.411Zm92-44.686c5.271-.135,5.283-7.882,0-8-1.927,0-25.371,0-28,0a8,8,0,0,1,0-16h15.653c-1.177-13.359-5.483-24.214-13.8-35.158l0,0C386.5,131.459,365.894,120,352,120a8,8,0,0,1,0-16c11.967,0,27.723,5.95,40,14.208V108.7c-18.145-8.216-33.755-12.1-64.22-12.7-31.433,0-58.795,18.379-71.78,48.061V200ZM256,312h7.778a32.038,32.038,0,0,1,18.889-29.179q-1.531-.981-3.027-2.029A82.484,82.484,0,0,1,256,255.127Zm23.778,0h16V296A16.019,16.019,0,0,0,279.778,312Zm32,0h16V296h-16Zm32,0h16a16.018,16.018,0,0,0-16-16Zm32,0H408a8,8,0,0,1,5.657,2.343L427.313,328H448V248.983l-10.8-43.192A20.007,20.007,0,0,1,419.78,216h-8.949A82.335,82.335,0,0,1,364.4,287.558,31.937,31.937,0,0,1,375.778,312ZM480,256H464v72h16Zm-2.246-16-44-176H418.246l44,176ZM225.371,48H430.629A24.042,24.042,0,0,0,408,32H248A24.042,24.042,0,0,0,225.371,48ZM176,384H155.314l16,16H176Zm32-16V336H176c-.394,10.6-15.61,10.6-16,0H120c-.394,10.6-15.61,10.6-16,0H64c-.394,10.6-15.61,10.6-16,0H32v32ZM32,184H208V96H144v24a8,8,0,0,1-8,8H104a8,8,0,0,1-8-8V96H32Zm80-88v16h16V96Zm96,224V232H144v24a8,8,0,0,1-8,8H104a8,8,0,0,1-8-8V232H32v88ZM32,216H208V200H32Zm80,32h16V232H112ZM32,80H208V64H32Zm8,304v16H52.686l16-16Zm72,32a32.036,32.036,0,0,0-32,32c1.758,42.452,62.248,42.44,64,0A32.036,32.036,0,0,0,112,416Zm36.687-16-16-16H91.313l-16,16ZM208,416V384H192v32Zm192,32h16V424a8,8,0,0,1,8-8h52.686L480,412.687V400H456a8,8,0,0,1-8-8V344H424a8,8,0,0,1-5.657-2.343L404.687,328H248a8,8,0,0,1-8-8c0-53.708,0-204.5,0-256H224V448h32C259.966,352.459,396.07,352.532,400,448Zm72-16H432v16h40Zm-96,16a48.053,48.053,0,0,1-48,48c-63.679-2.636-63.66-93.374,0-96A48.053,48.053,0,0,1,376,448Zm-16,0a32.036,32.036,0,0,0-32-32c-42.452,1.758-42.44,62.248,0,64A32.036,32.036,0,0,0,360,448ZM112.042,464a16.019,16.019,0,0,0,16-16c-.879-21.226-31.124-21.22-32,0A16.019,16.019,0,0,0,112.042,464ZM328,432a16.019,16.019,0,0,0-16,16c.879,21.226,31.124,21.22,32,0A16.019,16.019,0,0,0,328,432Z"/></svg>
