<?xml version="1.0" encoding="utf-8"?>
<!-- Generator: Adobe Illustrator 24.1.2, SVG Export Plug-In . SVG Version: 6.00 Build 0)  -->
<svg version="1.1" xmlns="http://www.w3.org/2000/svg" xmlns:xlink="http://www.w3.org/1999/xlink" x="0px" y="0px"
	 viewBox="0 0 480.6 480.6" style="enable-background:new 0 0 480.6 480.6;" xml:space="preserve">
<style type="text/css">
	.st0{fill:#000000;stroke:#F7A311;stroke-width:25;stroke-miterlimit:10;}
	.st1{fill:none;stroke:#F7A311;stroke-width:25;stroke-miterlimit:10;}
	.st2{fill:#000000;stroke:#F7A311;stroke-width:14;stroke-miterlimit:10;}
	.st3{fill:#F7A311;}
</style>
<g id="Слой_1">
	<path class="st0" d="M348.3,468.1H132.2c-66.1,0-119.7-53.6-119.7-119.7V132.2c0-66.1,53.6-119.7,119.7-119.7h216.1
		c66.1,0,119.7,53.6,119.7,119.7v216.1C468.1,414.5,414.5,468.1,348.3,468.1z"/>
</g>
<g id="Слой_2">
	<path class="st1" d="M240.3,347.2L240.3,347.2c-59.1,0-106.9-47.9-106.9-106.9v0c0-59.1,47.9-106.9,106.9-106.9h0
		c59.1,0,106.9,47.9,106.9,106.9v0C347.2,299.3,299.3,347.2,240.3,347.2z"/>
</g>
<g id="Слой_3">
	<path class="st2" d="M362.2,69.7L362.2,69.7c13.7,0,24.7,11.1,24.7,24.7v0c0,13.7-11.1,24.7-24.7,24.7h0
		c-13.7,0-24.7-11.1-24.7-24.7v0C337.5,80.8,348.6,69.7,362.2,69.7z"/>
</g>
<g id="Слой_4">
	<g>
		<g>
			<path class="st3" d="M13.1,154.6c55,0,110,0,165,0c7.7,0,7.7-12,0-12c-55,0-110,0-165,0C5.3,142.6,5.3,154.6,13.1,154.6
				L13.1,154.6z"/>
		</g>
	</g>
	<g>
		<g>
			<path class="st3" d="M336.9,201.8c43.3,0,86.7,0,130,0c7.7,0,7.7-12,0-12c-43.3,0-86.7,0-130,0
				C329.2,189.8,329.2,201.8,336.9,201.8L336.9,201.8z"/>
		</g>
	</g>
	<g>
		<g>
			<path class="st3" d="M463.6,183.8c-39.8,0-79.6,0-119.4,0c-15.4,0-15.5,24,0,24c39.8,0,79.6,0,119.4,0
				C479.1,207.8,479.1,183.8,463.6,183.8L463.6,183.8z"/>
		</g>
	</g>
	<g>
		<g>
			<path class="st3" d="M173.1,137.7c-49.4,0-98.9,0-148.3,0c-15.4,0-15.5,24,0,24c49.4,0,98.9,0,148.3,0
				C188.5,161.7,188.5,137.7,173.1,137.7L173.1,137.7z"/>
		</g>
	</g>
</g>
</svg>
