<?xml version="1.0" encoding="utf-8"?>
<!-- Generator: Adobe Illustrator 24.1.2, SVG Export Plug-In . SVG Version: 6.00 Build 0)  -->
<svg version="1.1" id="Слой_1" xmlns="http://www.w3.org/2000/svg" xmlns:xlink="http://www.w3.org/1999/xlink" x="0px" y="0px"
	 viewBox="0 0 3069.1 1799.6" style="enable-background:new 0 0 3069.1 1799.6;" xml:space="preserve">
<style type="text/css">
	.st0{fill:#f7a311;}
	.st1{fill:#FFFFFF70;}
	.st2{fill:#FCBB11;}
	.st3{fill:#FE850F;}
	.st4{fill:#121212;}
	.st5{fill:url(#SVGID_1_);}
</style>
<path class="st0" d="M698.6,1575.3c0-467.7,379-846.7,846.7-846.7s846.7,379,846.7,846.7c0,77.5-10.4,152.6-30,224l166,0.3
	c10.4-45.3,17.6-91.9,21.6-139.3l186.5-42.2v-85.5l-186.5-42.2c-4.1-49.3-11.8-97.6-22.8-144.8l164-97.6l-26.4-81.4l-190,17.5
	c-19.1-45.2-41.3-88.9-66.6-130.5L2533.7,910l-50.2-69.3l-175.6,75.5c-32.1-37-66.6-71.6-103.5-103.5l75.5-175.6l-69.3-50.2
	l-143.5,125.9c-41.7-25.3-85.3-47.6-130.5-66.6l17.5-190l-81.4-26.4l-97.6,164c-47-11-95.5-18.7-144.8-22.8L1588,384.6h-85.5
	L1460.3,571c-49.3,4.1-97.6,11.8-144.8,22.8l-97.6-164l-81.4,26.4l17.5,190c-45.2,19.1-88.9,41.3-130.5,66.6L879.9,586.9l-69.3,50.2
	l75.5,175.6c-37,32.1-71.6,66.6-103.5,103.5L607,840.7L556.8,910l125.9,143.5c-25.3,41.7-47.6,85.3-66.6,130.5l-190-17.5l-26.4,81.4
	l164,97.6c-11,47-18.7,95.5-22.8,144.8l-186.5,42.2v85.5l186.5,42.2c3.8,46.1,10.8,91.3,20.7,135.5l166,0.3
	C708.7,1725.8,698.6,1651.7,698.6,1575.3z"/>
<g>
	<path class="st0" d="M5.8,1377l297-29.5l-4.1,79.7l-53.2,1.5l-1.4,27.9l52.7,7.4l-4.1,80.7L0,1489.8L5.8,1377z M193.2,1428.1
		c-33.6,2.2-75.1,4.1-124.4,5.5c56,10.9,97,18,123,21.3L193.2,1428.1z"/>
	<path class="st0" d="M23.3,1238.6l18.2-76.6c4.9-20.7,10.3-36.2,16.1-46.6c5.8-10.4,12.4-17.6,19.8-21.8c7.4-4.2,15.6-6.2,24.6-6.2
		c9,0,22.6,2.2,40.5,6.5l25,5.9c18.3,4.4,31.2,9.4,38.7,15.3c7.5,5.8,12.2,14.4,14.3,25.8c2.1,11.4,1.1,25.3-2.8,42l-4.8,20.4
		l115.6,27.4l-18,76L23.3,1238.6z M90.5,1174.2l73.1,17.3c0.6-2.1,1.1-4,1.5-5.6c1.7-7,1.1-12.2-1.6-15.7c-2.7-3.5-9.4-6.5-20.1-9.1
		l-23.6-5.6c-9.8-2.3-16.6-2.3-20.3,0.1C95.9,1158.2,92.8,1164.4,90.5,1174.2z"/>
	<path class="st0" d="M95.8,979.3l51-119.9l54.3,23.1l-20.4,48l51.5,21.9l19.1-44.9l51.7,22l-19.1,44.9l59.7,25.4l22.5-52.8
		l54.3,23.1l-53,124.6L95.8,979.3z"/>
	<path class="st0" d="M294.8,612.6l246.8,161.9l-42.9,65.3l-103.6-68l-12.8,19.5l103.6,68L443,924.7L196.2,762.8l42.9-65.3
		l88.3,57.9l12.8-19.5l-88.3-57.9L294.8,612.6z"/>
	<path class="st0" d="M771.4,607.9L733,645.8l-35.7-36.2l-89.8,88.6l35.7,36.2l-38.3,37.8l-79-80l11.4-11.2
		c-11-23.1-28.4-50.6-52.3-82.5c-23.9-31.8-52.2-64.4-85.1-97.7l-6.3-6.4l123.4-121.7l163.9,166.1l11.4-11.2L771.4,607.9z
		 M625.1,593.8L502.2,469.2l-16.5,16.3l1.5,1.6c39.7,40.2,75.8,85.6,108.2,136L625.1,593.8z"/>
	<path class="st0" d="M729.8,221.2L928.4,444l-66.9,43.6l-32.5-42.1l-23.4,15.3l25,47l-67.7,44.1l-127.8-269L729.8,221.2z
		 M798.8,402.7c-21.6-25.8-47.5-58.3-77.7-97.3c24.2,51.7,42.6,89,55.1,112L798.8,402.7z"/>
	<path class="st0" d="M1180.6,169.1l-74.4,23.9l-15.7-48.8c-4.6-14.2-8.2-22.8-10.9-25.8c-2.7-3-6.8-3.6-12.2-1.9
		c-6.1,2-9.3,5.4-9.6,10.2c-0.3,4.8,1.9,14.3,6.5,28.6l42,130.5c4.4,13.7,8.1,22.3,11.1,25.9c3,3.6,7.4,4.5,13.1,2.7
		c5.5-1.8,8.5-5,8.8-9.8c0.4-4.7-1.9-14.8-6.9-30.2l-11.4-35.3l74.4-23.9l3.5,10.9c9.4,29.1,13.9,50.4,13.6,63.9
		c-0.3,13.5-6.1,27.1-17.4,40.9c-11.4,13.8-27.5,24-48.5,30.8c-21.8,7-41,8.9-57.6,5.7c-16.6-3.2-29.4-10.9-38.4-23.1
		c-9-12.2-17.9-32.1-26.8-59.6l-26.4-82.1c-6.5-20.2-10.7-35.7-12.5-46.2c-1.8-10.6-0.8-21.7,3.2-33.3c4-11.6,11.3-22.1,22-31.5
		c10.7-9.4,24.1-16.7,40.2-21.9c21.9-7.1,41.3-8.7,58.2-5c16.9,3.7,29.6,11.1,38.1,22.1c8.5,11,16.9,29.6,25.4,55.8L1180.6,169.1z"
		/>
	<path class="st0" d="M1464.6,294.6l-77.7,9.4l-28.3-234.5l-23,2.8l28.3,234.5l-77.7,9.4l-35.4-293.2l178.5-21.6L1464.6,294.6z"/>
	<path class="st0" d="M1539.4,0l130.1,6.5l-3,59l-52.1-2.6l-2.8,55.9l48.7,2.5l-2.8,56.1l-48.7-2.5l-3.3,64.8l57.3,2.9l-3,59
		l-135.3-6.8L1539.4,0z"/>
	<path class="st0" d="M1891,399.1l-52.7-11.8l11.1-49.6L1711,306.8l64.3-288.2l76.4,17.1l-51.5,230.6l22.6,5.1l51.5-230.6l76.4,17.1
		l-51.5,230.6l15.6,3.5L1891,399.1z"/>
	<path class="st0" d="M2207.4,155.6l-22.8,54.5l-42.8-17.9l-91.3,217.7l-72-30.2l91.3-217.7l-42.6-17.9l22.8-54.5L2207.4,155.6z"/>
	<path class="st0" d="M2290.1,200.1l110.8,68.6l-31.1,50.2l-44.3-27.4L2296,339l41.5,25.7l-29.5,47.7l-41.5-25.7l-34.2,55.2
		l48.8,30.2l-31.1,50.2L2134.7,451L2290.1,200.1z"/>
	<path class="st0" d="M2605,433.8l-106.3,80.6L2422,665.8l-54.7-47.4c12.8-27.9,30.3-60.2,52.6-96.8c-13.8,12.9-28.8,26-45.2,39.5
		l-37.1,31.5l-57.5-49.9L2409.6,437l64.1-117.2l57,49.5c-4.3,7-11.1,19-20.5,36c-7,13.1-13.7,24.9-20.1,35.4l65.4-49.9L2605,433.8z"
		/>
	<path class="st0" d="M2791.5,650.4L2561,834.8l-48.8-61l96.8-77.4l-14.6-18.3l-96.8,77.4l-48.8-61l230.5-184.4l48.8,61l-82.4,65.9
		l14.6,18.3l82.4-65.9L2791.5,650.4z"/>
	<path class="st0" d="M2674.3,1038.6l-30.4-57.8l118.9-62.5L2625,944.8l-31.9-60.6l261.4-137.4l30.4,57.8l-118,62l138.3-23.2
		l30.4,57.8L2674.3,1038.6z"/>
	<path class="st0" d="M2979.2,1007.7l22.6,75l-119.3,36.4c4.6,14,14.5,19,29.6,14.9l55.6-15.2c20.5-5.7,35.4-5.8,44.8-0.3l20.9,69.1
		c-8.9-4.7-24.1-3.7-45.6,2.9l-48.4,15c-29.2,9.1-51-2.7-65.3-35.3c6.1,35.1-5.7,57-35.6,65.8l-45.1,13.2
		c-21.4,6.3-35.7,14.3-42.7,23.7l-20.9-69.1c4.7-10.2,17.2-18.4,37.5-24.5l55.1-16.6c7-2.1,11.9-6,14.9-11.6
		c2.9-5.6,3.4-11.9,1.5-18.8l-119.8,35.8l-22.6-75L2979.2,1007.7z"/>
	<path class="st0" d="M2775.3,1489.3l-6.5-65l133.7-13.3l-137.7-27.1l-6.8-68.1l293.8-29.3l6.5,65l-132.6,13.2l136.9,30.3l6.5,65
		L2775.3,1489.3z"/>
</g>
<rect x="564" y="1410.9" class="st0" width="1956.9" height="388.8"/>
<g>
	<path d="M930.5,1749.6H873v-134.6l-35.8,134.6H777v-295.8h57.5v133.5l38.5-133.5h57.5V1749.6z"/>
	<path d="M1133.8,1749.6h-68.9V1513h-20.4v236.7h-68.9v-295.8h158.2V1749.6z"/>
	<path d="M1394.1,1454v59.2h-40.8v236.5h-68.7v-236.5h-40.7V1454H1394.1z"/>
	<path d="M1546.4,1454l39.3,295.7h-70.3l-3.7-53.1h-24.6l-4.1,53.1h-71.1L1447,1454H1546.4z M1509.9,1644.1
		c-3.5-33.5-7-74.9-10.5-124.2c-7,56.6-11.4,98-13.2,124.2H1509.9z"/>
	<path d="M1773.2,1454v295.7h-68.7v-124.2h-20.6v124.2h-68.7V1454h68.7v105.7h20.6V1454H1773.2z"/>
	<path d="M1972,1749.6h-57.5v-134.6l-35.8,134.6h-60.3v-295.8h57.5v133.5l38.5-133.5h57.5V1749.6z"/>
	<path d="M2017.1,1454h114.6v59.2h-45.9v56.1h42.9v56.2h-42.9v65h50.5v59.2h-119.2V1454z"/>
	<path d="M2173.8,1454h68.6c21.7,0,38.1,1.9,49.2,5.7c11.2,3.8,20.2,11.4,27,22.9c6.9,11.5,10.3,30,10.3,55.6
		c0,17.3-2.4,29.3-7.3,36.1c-4.8,6.8-14.4,12-28.7,15.7c15.9,4,26.7,10.7,32.3,20c5.7,9.3,8.5,23.6,8.5,42.8v27.4
		c0,20-2,34.8-6.1,44.4c-4.1,9.6-10.6,16.2-19.5,19.7c-8.9,3.5-27.2,5.3-54.9,5.3h-79.5V1454z M2242.6,1504.6v65.7
		c2.9-0.1,5.2-0.2,6.9-0.2c6.7,0,11-1.9,12.9-5.6c1.8-3.7,2.8-14.3,2.8-31.9c0-9.3-0.8-15.7-2.3-19.4c-1.5-3.7-3.5-6.1-6-7
		C2254.4,1505.2,2249.6,1504.7,2242.6,1504.6z M2242.6,1616.3v82.7c9.7-0.4,15.9-2.1,18.5-5.1c2.7-3,4-10.5,4-22.5v-27.6
		c0-12.7-1.2-20.3-3.6-23C2259.1,1618.2,2252.8,1616.7,2242.6,1616.3z"/>
</g>
<g>
	<path class="st1" d="M1545.3,732.8c-419.8,0-768.2,300.1-835,693.7h1670C2313.4,1032.9,1965,732.8,1545.3,732.8z"/>
</g>
<g>
	<polygon class="st2" points="1366.4,1048.7 1373.5,1087.1 1266.6,1054.7 1264.7,1012.5 	"/>
	<polygon class="st2" points="1375.4,1095.5 1377.1,1108.5 1268.4,1074.9 1267.6,1061.5 	"/>
	<polygon class="st3" points="1879.9,946.3 1818.9,885.3 1825,880.1 1705.3,756.4 1691.9,768.6 1668.3,769.6 1839,1025.8 
		1844.6,978.5 1767.1,869.1 1799.8,903.1 1807.2,898.4 1864.7,960.5 1879.9,948.5 	"/>
	<path class="st4" d="M1552.4,1408.3c-1.2-1.8-2.4-3.9-3.6-6.2c-0.8-1.7-1.6-3.2-2.1-4.6c-50.1-0.4-100.4-0.8-150.5-1.2
		c3.8-14.2,3.7-25.6,3-32.5c-0.6-8.1-2.4-14-3-16c-1.2-3.7-2.9-9.3-7.2-15.9c-2.4-3.7-4.9-6.7-6.9-8.6c42.3,0.5,84.7,1,127,1.5
		c14.8,8.1,29.4,16.2,44.2,24.4c0.8-1.5,3.5-6,9.1-8.2c4.4-1.8,8.4-1.1,10.1-1c8.2,1.4,13.2,7.4,15.2,10c6.8,8.4,7.6,17.7,8,23.5
		c1.1,12.6-2.8,22.1-3.7,24.5c-2,4.7-4.4,8.2-6.3,10.6c7.6,0.1,15.3,0,23,0.1c4.5-11.6,6.2-21.4,7-28c1-8.7,0.4-13.9,0-16.8
		c-1.1-7.1-3.2-12-4.2-14.1c-1.7-3.7-3.4-6-4.1-6.8c-0.9-1.1-2.4-3.3-5.2-5.8c-5.9-5.3-12.4-8.2-13.5-8.7c-9.8-4.3-19.4-9-29.2-13.4
		c-11-5.1-22-10-33.1-14.9c-48.7-0.3-115-0.8-163.7-1.1c0.1-2.6,0.4-4.2,0.8-6.7c0.6-2.6,1.1-5.9,0.7-8.5c-0.3-1.7,1.2-2.4,1.3-3.6
		l201.6,0.7c11.9,5,22.5,9.3,30.8,12.6c17,6.7,25.4,10.1,34.8,13.4c4.4,1.5,14.5,5,28.6,10.2c8.9,3.3,13.5,5.2,19.1,8.6
		c5,3.3,10.8,7,15.4,14.1c4.4,6.7,5.1,13.1,6.2,21.5c0.5,3.5,1.6,13.6-0.7,26.3c-1.2,6.6-2.9,15.3-9,24.7
		c-4.8,7.5-10.3,12.5-14.1,15.4c-94.8-0.4-189.9-0.8-284.8-1.2c-0.1-6.4-0.4-12.7-0.6-19.1L1552.4,1408.3z"/>
	
		<linearGradient id="SVGID_1_" gradientUnits="userSpaceOnUse" x1="1010.7008" y1="1074.0765" x2="1769.1123" y2="1074.0765" gradientTransform="matrix(0.9639 0.2663 -0.2663 0.9639 402.0165 -374.4048)">
		<stop  offset="0" style="stop-color:#FE850F"/>
		<stop  offset="0.4973" style="stop-color:#FCBB11"/>
		<stop  offset="1" style="stop-color:#FE8C0F"/>
	</linearGradient>
	<path class="st5" d="M1033.8,1215.1c0.3,2.4,0.6,4.7,2.2,7.1c1.5,2.3,3.2,3.5,4.6,4.3c1.1,0.7,3.1,1.9,6.9,2.8
		c4.9,1.1,8.9,0.9,9.5,0.9c6.5-0.4,37.8,0,82.2,0.7c4.2,11.1,8.4,22.1,12.5,33.3c30.8,0.2,61.5,0.5,92.4,0.8
		c38.5,13.5,77,27.2,115.7,40.8c0.5-2.3,1.1-4.6,1.6-6.9c0.9,0,1.8-0.1,2.6,0c0.2-3.3,0.4-6.7,1.2-10c0.6-3.3,0.7-6.6,1.4-9.7
		c-0.1,0-0.1,0-0.1,0c1-4.5,2-9.2,2.9-13.7c37.8,0.6,75.8,1.1,113.6,1.7c5.3-11,10.8-21.9,16.3-33c11.3-0.2,22.8-0.4,34.2-0.2
		c8.3,0,16.5,0.1,24.6,0.1c4.2,0.6,9.2,1.1,15,0.7c3.1-0.3,6-0.7,8.4-1.1c1.4-0.3,6-1.8,9.1-6.3c2-2.9,2.5-5.8,2.7-7.5
		c0.1-7.8,0.1-15.6,0.1-23.4c0-5.3,0-10.4,0.1-15.7c0-1.5-0.3-3.7-1.6-6.2c-0.6-1.3-2.5-4.7-6.2-7.1c-2.4-1.4-4.9-1.8-9.5-2.5
		c-2.5-0.4-6-0.7-10.4-0.7c-2.9-30-5.7-60.2-8.7-90.3c1.8-15,3.5-30,5.3-44.9c-2.1-0.3-4.4-0.5-6.4-0.8c2.8-21.8,5.7-43.6,8.5-65.5
		l102.2-23l162.5,162.6l7.6-55.2l-182.7-278.3l-54.5,34.2l7,17.6l-101,38l2,6.8l-7.8-2.3l-97.5,192.1l-31.5-139.3
		c4.4-1.7,8.8-3.2,13.3-5c-0.4-2.6-1.2-5.7-2.6-9c-1.1-2.3-5.1-11-14.2-15.6c-3.7-1.9-6.9-2.6-9-3.1c-4.1-0.8-7.3-0.9-10-0.9
		c-12.2,0.1-18.3,0.2-18.6,0.1c-7.8,0.3-15.5,0.2-23.3,0.4c-17.6,0.2-30.5,0.5-46.3-0.1c-19.8-0.7-24.2-2-37-0.8
		c-6.9,0.7-16.6,2.1-19.2,2.4c-8.7,1.2-15.2,2.5-20.7,3.6c-13.4,2.4-26.8,5.2-40.4,7.5c-1.5,0.2-6.2,0.9-11.3,3.8
		c-2.6,1.5-6.3,3.3-8.8,7.1c-1.9,2.8-2.6,5.7-3.4,10.3c-1.3,7.9-1.9,11.8-1.4,18.3c0.7,11.1,0.1,60.8-1.1,132
		c-8.6,0.1-15.4,0.2-20.1,0.4c-12.5,0.3-15.2,0.4-20,0.3c-0.7,0.1-3.9-0.2-7.9-0.2c-3.6,0-2.2,0.1-7.3,0.3c-3.5,0.2-4.6,0-6.3,0.7
		c-1.1,0.4-2.7,1-3.9,2.7c-0.9,1.3-1,2.8-1.2,4.2c-0.1,2-0.8,7.6-0.6,9.5c0.3,5.2,0.1,10.2,0.1,15.4c0,2.7,0.1,4.4-0.3,17
		c-0.3,10.4-0.5,20-0.8,28.5c27.2,5.6,54.5,11.2,81.8,16.7c-12.3,0.4-22.2,0.5-29,0.5c-5.2,0-9.3,0.2-14.9,0.1
		c-3.6,0-3.9-0.1-13.1-0.2c-8.4-0.1-8.1,0.1-9.7-0.1c-7-0.2-8-0.5-12.1-0.3c-6.3,0.3-8.8,1-10,1.7c-1.9,0.8-4.4,2-6,4.6
		c-0.8,1.2-1,2.5-1.1,5.2c-0.4,5-0.3,8.9-0.2,10.2c0.1,4.2-0.1,8.7-0.1,13c0,6.8,0,10.1-0.1,10.3
		C1033.7,1210.9,1033.4,1212.4,1033.8,1215.1z M1557.3,867.1c19.9-8.2,39.8-16.4,59.9-24.6c2.4,4.9,5,9.8,7.3,14.6
		c9.3,1,17.2,2.6,23.5,4.2c7.9,1.9,14.7,4.4,20.6,6.7c8,3.4,12.2,5,16.4,8.3c6.8,5.3,10.5,11.7,12.5,15.9c-2.8-2.4-6.8-5.7-12-8.5
		c-6.6-3.7-12.1-5.5-15.9-6.7c-4.8-1.5-9.8-2.7-17.3-3.9c-13.9-2.1-24.8-2.4-26.6-2.3C1612.1,870.6,1590.8,869.5,1557.3,867.1z
		 M1515.1,1071.1l25.8-102.8l6-1.7l-5.7,59.9l-7.6,0.2l-4.5,44.6L1515.1,1071.1z M1457,1103.4l9.5-83.7l5.3,0l7.2-69.1l12.4,0.1
		l-7.7,70l4.4,0.5l-8.3,84.1L1457,1103.4z M1257.6,1135.5l-6.8-202.7l98.7,0.8l46.1,203L1257.6,1135.5z M1158.1,1115.8l1.4-174.3
		l65.5-6.1l7.4,196.5L1158.1,1115.8z"/>
	<path class="st4" d="M908.6,1383.3c1,4.6,2.6,11.6,7.3,19.1c1.8,3,5.6,8.9,13.1,14c4.8,3.2,9.3,5,12.4,6
		c138.2,1.1,276.5,2.1,414.7,3.2c5.3-4.3,13.1-12.2,18.1-24.1c4.8-11.7,4.7-21.9,4.6-29.8c-0.1-9.1-1.5-15.5-2.2-18.4
		c-1.3-5.7-2.8-11.3-7-17.6c-3.8-5.5-7.9-8.7-9.2-9.6c-3.5-2.6-6.2-3.7-12.6-6.2c-9.4-3.8-14.1-5.6-17.5-6.9
		c-10-3.5-19.9-7.7-29.9-11.3c-11.4-4.3-29.4-11.3-57.7-23.6c-72.5-0.6-144.9-1.2-217.4-1.8c-40.3,15.2-70.5,28.7-84.9,36.8
		c-5.5,3-12.8,7.5-19.4,15.3c-6,7.2-8.9,13.9-9.9,16.5C904.1,1361.5,907.2,1376.5,908.6,1383.3z M926.6,1358.5
		c1-4.5,2.2-10.2,6.3-15.9c4-5.6,8.5-8.4,14.2-11.7c4.3-2.4,6.7-3.4,16.9-7.6c11.7-4.7,17.5-7.2,23.1-9.6c2.5-1.1,11.1-5,22.1-9.8
		c6.8-3,8.1-3.6,10.5-4.3c0.3-0.1,0.6-0.3,0.8-0.4c-3.9,4.6-6.4,11.6-6.5,19.3c-0.1,13.9,7.5,25.1,16.9,25.2
		c9.4,0.1,17.2-11,17.3-25c0-10.1-3.8-18.7-9.6-22.8c0.1,0,0.4,0,0.6,0c6.5-0.4,10.4,0.1,16.9,0.3c9.4,0.6,12.7,0.2,27.9,0.2
		c5,0.1,9.7,0.1,13.9,0.1c-5.7,3.9-9.7,12.5-9.8,22.3c-0.1,13.9,7.5,25.1,16.9,25.2c9.5,0,17.2-11,17.3-25
		c0.1-9.8-3.6-18.2-9.1-22.5c11.5,0.3,23.3,0.6,41.3,0.7c4.6,0,10.3,0.1,16.8,0.1c-5.3,4.2-9.1,12.4-9.1,21.9
		c-0.1,13.9,7.5,25.1,16.9,25.2c9.5,0,17.2-11,17.3-25c0.1-9.7-3.6-18.1-9-22.3c4.6,0,9.4-0.1,14.4-0.2c4.4,2.2,11,5.7,19,9.4
		c7.7,3.6,14.4,6.6,22.6,10.3c15.1,6.8,16,6.9,20.3,9.2c9.2,5,14.4,8,19.3,14.1c5.7,7.2,7,14.5,8.6,22.2c3.2,15.7,0.1,27.8-0.5,30.3
		c-1.6,6.5-4.2,11.6-6,15c-6.5-0.1-13-0.1-19.5-0.2c6.5-6.9,10.9-18.6,11.1-31.7c0.3-21.4-11-38.8-24.8-39
		c-13.9-0.1-25.3,17.2-25.4,38.6c-0.2,13.1,4,24.8,10.5,31.8c-11.3-0.1-22.8-0.2-34.1-0.2c-183.4-1.5-215.8-1.7-221.5-1.7
		c1.3-1.5,2.6-3.5,3.7-6.2c1.1-2.6,1.6-4.9,2-6.8c74.7,0.6,149,1.4,223.7,1.9c0.2-11.7,0.2-23.4,0.2-35
		c-74.3-0.5-148.3-1.2-222.6-1.7c-2-6.5-5-10.7-7-13.1c-2.2-2.5-4.6-5.5-8.9-7.2c-1.4-0.7-6.2-2.6-12-1.1c-5.1,1.2-8.1,4.3-10.5,6.5
		c-4.4,4.4-6.4,8.9-7.4,11.7c-2.3,5.7-2.5,10.2-2.8,16.5c-0.3,5.4-0.5,10.7,1,17.5c0.3,1.1,1.8,7.2,5.7,13.4
		c0.5,0.7,0.9,1.4,1.2,1.8c-0.4-0.1-0.8-0.2-1.2-0.3c-2-0.7-4.7-1.7-7.6-3.8c-4.1-3.1-6-6.6-7.9-10.1c-1.7-2.9-4.5-8.5-5.3-16.4
		C924.9,1366.5,925.8,1362,926.6,1358.5z"/>
	<path class="st4" d="M2170.6,1273.9c-4.9-33.6-9.1-61.6-12.2-82.3c-6.9-45.8-9-59.2-10.7-69.4c-5.4-33.2-9.6-54.9-11.4-65.2
		c-2.4-12.7-5.7-27.6-7.8-40.2c-2.6-14.6-3.8-23-9.1-34.2c-5.4-11.3-11.3-17.6-12.7-19.1c-2.7-2.8-9.6-9.6-20.8-14.4
		c-9-3.9-16.9-4.8-29-5.7c-27.3-1.8-42.7-1.1-42.7-1.1c-24.7,1-100.3,3-125.8,0.6c-1.6-0.1-7.1-0.6-13.9,0.6
		c-3.7,0.7-12.6,2.6-20.2,9.6c-1.2,1.1-5.5,5.1-10.6,16.9c-4.6,10.9-6.6,20.2-8.4,31.3c-3.7,22.2-4.6,32.9-4.6,32.9
		c-1.6,19.5-5,52.3-12,108c43.6,21.8,87.4,43.5,131.2,65.3c-0.5-6.5-1.2-16-2.5-27.5c-1.8-17-3.6-27.5-7.3-53.1
		c-5.3-35.3-4.1-28.1-8.1-54.6c-8.6-57.3-7.3-43.3-9.2-58.6c-1.8-13.5-2.3-19.9-5.2-29.8c-4.6-15.4-11.1-27.3-16-35
		c4.5,1.5,10.8,4.6,17,9.9c2.8,2.4,8.8,7.5,13,15.9c1.9,4,3.1,8.5,5.3,17.4s3.4,15.6,3.3,15.8c5.2,30.8-2.9-22.4,8.6,47
		c4.3,26.2,6.5,39.3,8.5,52c3.6,22.7,9.2,55.2,18.2,98.1c1.5,0.3,3.2,0.6,4.5,0.8c1.7,8.6,3.3,17.3,5.3,26.1c2.9,14,6,27.7,8.9,41.1
		c9.4,0.1,18.9,0.2,28.3,0.3c-0.8-7.2-1.7-14.4-2.5-21.7c-2-15.5-4.3-30.7-6.7-45.4c4.3,0,8.5,0,12.9,0.1c1.3,6.3,2.7,12.6,4,19.1
		c3.6,16.3,7.4,32.3,11.2,48.1c9.7,0.1,19.4,0.1,29,0.2c-0.8-9.3-2-19.1-3.2-29.1c-1.8-13.4-3.9-26.3-6.3-38.4
		c5.5,0.1,10.8,0.1,16.3,0.2c1.1,7.5,2.5,15.2,4.1,23c3,15.3,6.2,29.9,9.8,43.8c9.5,0,19.2,0.1,28.6,0.2c-1.4-8.6-2.6-17.4-3.7-26.4
		c-1.7-13.8-3.1-27.2-3.9-39.9c5.3,0,10.6,0,15.9,0.1c1.9,8.8,4,17.6,6,26.4c3.1,13.8,6.5,27.4,9.8,41.1
		C2152.8,1274.3,2161.7,1274.2,2170.6,1273.9z"/>
</g>
</svg>
