<?xml version="1.0" encoding="utf-8"?>
<!-- Generator: Adobe Illustrator 24.1.2, SVG Export Plug-In . SVG Version: 6.00 Build 0)  -->
<svg version="1.1" id="Слой_1" xmlns="http://www.w3.org/2000/svg" xmlns:xlink="http://www.w3.org/1999/xlink" x="0px" y="0px"
	 viewBox="0 0 1572.4 1533.3" style="enable-background:new 0 0 1572.4 1533.3;" xml:space="preserve">
<style type="text/css">
	.st0{fill:none;}
	.st1{fill:#FFFFFF;}
	.st2{fill:#FF8311;}
	.st3{fill:#FCBB11;}
	.st4{fill:#FE850F;}
	.st5{fill:#121212;}
	.st6{fill:url(#SVGID_2_);}
	.st7{font-family:'Impact';}
	.st8{font-size:157px;}
	.st9{letter-spacing:1;}
</style>
<path id="SVGID_x5F_1_x5F_" class="st0" d="M1454.3,681.5c101.7,355-102.3,724.8-455.6,826c-353.3,101.2-722.1-104.6-823.8-459.6
	s102.3-724.8,455.6-826S1352.7,326.5,1454.3,681.5z"/>
<text><textPath  xlink:href="#SVGID_x5F_1_x5F_" startOffset="66.2262%">
<tspan  class="st2 st7" style="font-size:188px; letter-spacing:140;">АРЕНДА СПЕЦТЕХНИКИ</tspan></textPath>
</text>
<circle class="st1" cx="810.8" cy="863.2" r="475.2"/>
<path class="st2" d="M1483.3,888.7v-48L1378.6,817c-2.3-27.7-6.6-54.8-12.8-81.3l92.1-54.8l-14.8-45.7l-106.7,9.8
	c-10.7-25.4-23.2-49.9-37.4-73.3l70.7-80.6l-28.2-38.9l-98.6,42.4c-18-20.8-37.4-40.2-58.1-58.1l42.4-98.6l-38.9-28.2l-80.6,70.7
	c-23.4-14.2-47.9-26.7-73.3-37.4l9.8-106.7l-45.7-14.8l-54.8,92.1c-26.4-6.2-53.6-10.5-81.3-12.8l-23.7-104.7h-48L767,300.8
	c-27.7,2.3-54.8,6.6-81.3,12.8l-54.8-92.1l-45.7,14.8L595,343c-25.4,10.7-49.9,23.2-73.3,37.4l-80.6-70.7l-38.9,28.2l42.4,98.6
	c-20.8,18-40.2,37.4-58.1,58.1l-98.6-42.4l-28.2,38.9l70.7,80.6c-14.2,23.4-26.7,47.9-37.4,73.3l-106.7-9.8l-14.8,45.7l92.1,54.8
	c-6.2,26.4-10.5,53.6-12.8,81.3l-104.7,23.7v48l104.7,23.7c2.3,27.7,6.6,54.8,12.8,81.3l-92.1,54.8l14.8,45.7l106.7-9.8
	c10.7,25.4,23.2,49.9,37.4,73.3l-70.7,80.6l28.2,38.9l98.6-42.4c18,20.8,37.4,40.2,58.1,58.1l-42.4,98.6l38.9,28.2l80.6-70.7
	c23.4,14.2,47.9,26.7,73.3,37.4l-9.8,106.7l45.7,14.8l54.8-92.1c26.4,6.2,53.6,10.5,81.3,12.8l23.7,104.7h48l23.7-104.7
	c27.7-2.3,54.8-6.6,81.3-12.8l54.8,92.1l45.7-14.8l-9.8-106.7c25.4-10.7,49.9-23.2,73.3-37.4l80.6,70.7l38.9-28.2l-42.4-98.6
	c20.8-18,40.2-37.4,58.1-58.1l98.6,42.4l28.2-38.9l-70.7-80.6c14.2-23.4,26.7-47.9,37.4-73.3l106.7,9.8l14.8-45.7l-92.1-54.8
	c6.2-26.4,10.5-53.6,12.8-81.3L1483.3,888.7z M814.7,1340.1c-262.5,0-475.4-212.8-475.4-475.4s212.8-475.4,475.4-475.4
	s475.4,212.8,475.4,475.4S1077.2,1340.1,814.7,1340.1z"/>
<g>
	<polygon class="st3" points="634.5,732.1 646.7,757.3 566.7,755.3 557.3,726.5 	"/>
	<polygon class="st3" points="649.6,762.7 653.3,771.4 571.8,768.9 568.7,759.8 	"/>
	<g>
		<polygon class="st4" points="969.7,563.4 915.9,532.9 919.1,528.1 812.8,465.5 805.9,476.5 789.8,481.7 956.6,626.1 951.4,592.4 
			877,531.6 906.1,548.8 910.3,544.2 961.9,576.1 970.1,564.9 		"/>
		<path class="st5" d="M831.6,945c-1.2-1-2.4-2.2-3.7-3.6c-0.9-1-1.7-1.9-2.3-2.8c-34.7,9.3-69.5,18.6-104.2,27.9
			c-0.1-10.5-2.3-18.4-4.1-23c-2-5.5-4.3-9.2-5.1-10.5c-1.5-2.3-3.8-5.9-8-9.6c-2.4-2.1-4.7-3.7-6.4-4.6c29.3-7.7,58.7-15.5,88-23.2
			c11.8,2.8,23.4,5.6,35.2,8.4c0.3-1.2,1.3-4.8,4.7-7.4c2.7-2.1,5.6-2.4,6.8-2.6c5.9-0.6,10.5,2.6,12.4,4c6.3,4.5,8.6,10.8,10,14.7
			c3.2,8.5,2.3,15.8,2.1,17.6c-0.5,3.6-1.5,6.5-2.3,8.5c5.3-1.4,10.6-2.9,15.9-4.3c0.9-8.9,0.2-16-0.5-20.7c-1-6.2-2.4-9.7-3.2-11.6
			c-2.1-4.7-4.5-7.7-5.6-8.9c-1.9-2.2-3.5-3.5-4.1-3.9c-0.8-0.6-2.3-1.8-4.7-3c-5.1-2.5-10.1-3.3-11-3.4c-7.6-1.1-15.1-2.5-22.7-3.7
			c-8.6-1.4-17.1-2.7-25.7-4c-33.7,9.1-79.6,21.4-113.3,30.5c-0.4-1.8-0.5-3-0.7-4.8c-0.1-1.9-0.4-4.3-1.1-6
			c-0.5-1.1,0.4-1.9,0.2-2.7l139.4-38c9.2,1.2,17.3,2.1,23.7,2.8c13,1.4,19.5,2.1,26.6,2.6c3.3,0.2,11,0.7,21.7,1.6
			c6.8,0.6,10.3,1,14.8,2.3c4.1,1.3,8.8,2.8,13.3,6.8c4.3,3.8,6,8.1,8.4,13.7c1,2.3,3.7,9.1,4.5,18.3c0.4,4.8,0.9,11.1-1.5,18.8
			c-1.9,6.1-4.7,10.6-6.8,13.3c-65.6,17.8-131.3,35.7-197,53.5c-1.3-4.4-2.7-8.7-4.1-13.1L831.6,945z"/>
		
			<linearGradient id="SVGID_2_" gradientUnits="userSpaceOnUse" x1="438.9435" y1="671.6793" x2="1016.1713" y2="671.6793" gradientTransform="matrix(0.9603 -0.2791 0.2791 0.9603 -206.8719 269.9768)">
			<stop  offset="0" style="stop-color:#FE850F"/>
			<stop  offset="0.4973" style="stop-color:#FCBB11"/>
			<stop  offset="1" style="stop-color:#FE8C0F"/>
		</linearGradient>
		<path class="st6" d="M436.5,910.5c0.7,1.6,1.3,3.1,2.9,4.5c1.5,1.3,2.9,1.8,4,2.1c0.9,0.3,2.5,0.7,5.3,0.6
			c3.6-0.2,6.3-1.1,6.7-1.2c4.4-1.5,26.1-7.2,56.9-15.2c5,6.9,10,13.7,15,20.6c21.3-5.7,42.6-11.4,64-17.1c29.2,2,58.4,4.1,87.7,6.1
			c-0.1-1.7-0.1-3.4-0.2-5.1c0.6-0.2,1.2-0.4,1.8-0.5c-0.5-2.3-1-4.7-1.1-7.1c-0.2-2.4-0.8-4.7-0.9-7c-0.1,0-0.1,0-0.1,0
			c-0.2-3.3-0.4-6.7-0.6-10c26.2-6.8,52.6-13.7,78.8-20.5c1.6-8.6,3.3-17.2,5-25.9c7.8-2.3,15.7-4.6,23.6-6.7
			c5.7-1.6,11.4-3.1,17-4.6c3-0.4,6.6-1,10.5-2.4c2.1-0.8,4-1.6,5.6-2.4c0.9-0.5,3.8-2.4,5.1-6.1c0.8-2.4,0.6-4.5,0.4-5.7
			c-1.4-5.4-2.9-10.8-4.4-16.2c-1-3.7-2-7.2-2.9-10.9c-0.3-1-0.9-2.5-2.3-4c-0.7-0.8-2.6-2.8-5.6-3.7c-1.9-0.5-3.7-0.3-7,0.1
			c-1.8,0.2-4.3,0.7-7.3,1.5c-7.7-20.2-15.4-40.5-23.2-60.7c-1.6-10.7-3.3-21.4-4.9-32c-1.5,0.2-3.1,0.5-4.6,0.7
			c-2.2-15.6-4.4-31.2-6.6-46.9l66.2-35.4l143.3,81.3l-5.3-39.6L780,483.7l-31.1,34l8.2,10.8L694.6,574l2.7,4.3l-5.8-0.1
			l-30.7,151.3l-48.3-90.2c2.7-2,5.5-3.9,8.2-6c-0.8-1.7-1.9-3.7-3.5-5.7c-1.2-1.4-5.6-6.6-12.8-8.1c-2.9-0.6-5.3-0.5-6.8-0.4
			c-3,0.2-5.2,0.8-7.1,1.3c-8.4,2.4-12.6,3.6-12.8,3.6c-5.3,1.7-10.7,3.1-16,4.7c-12.1,3.5-21,6.2-32,8.8
			c-13.8,3.3-17.1,3.2-25.7,6.5c-4.6,1.8-11.1,4.6-12.8,5.3c-5.8,2.5-10,4.6-13.6,6.4c-8.8,4.2-17.5,8.7-26.5,12.9
			c-1,0.4-4.1,1.8-7.1,4.8c-1.5,1.5-3.7,3.5-4.7,6.6c-0.8,2.3-0.7,4.4-0.4,7.8c0.6,5.7,0.9,8.5,2.5,12.9c2.6,7.5,11.7,42,24.4,91.4
			c-5.9,1.7-10.6,3.1-13.8,4.1c-8.6,2.6-10.4,3.2-13.8,4c-0.5,0.2-2.7,0.6-5.5,1.4c-2.5,0.7-1.5,0.5-5,1.6c-2.4,0.8-3.2,0.9-4.2,1.7
			c-0.7,0.5-1.7,1.2-2.2,2.6c-0.4,1.1-0.2,2.1,0,3.1c0.3,1.4,0.9,5.4,1.4,6.7c1.2,3.5,2,7,3,10.6c0.5,1.9,0.9,3,3,11.8
			c1.8,7.2,3.5,13.9,4.9,19.8c19.9-1.3,39.8-2.7,59.7-4.1c-8.4,2.6-15.2,4.6-19.9,5.9c-3.6,1-6.4,1.9-10.3,2.9
			c-2.5,0.7-2.7,0.7-9.1,2.4c-5.8,1.5-5.6,1.6-6.7,1.8c-4.9,1.2-5.6,1.2-8.4,2.1c-4.3,1.4-5.9,2.4-6.6,3.1c-1.2,0.9-2.7,2.2-3.3,4.3
			c-0.3,1-0.2,1.9,0.2,3.8c0.7,3.5,1.5,6.2,1.8,7.1c0.9,2.9,1.6,6,2.4,9c1.3,4.7,1.9,7,1.9,7.1C435.6,907.6,435.7,908.7,436.5,910.5
			z M731.7,570.2c12.2-9.5,24.4-18.9,36.7-28.4c2.6,2.9,5.3,5.8,7.8,8.7c6.6-1.1,12.4-1.5,17-1.6c5.8-0.2,11,0.2,15.5,0.7
			c6.2,0.8,9.4,1.1,12.9,2.6c5.7,2.4,9.5,6.1,11.7,8.6c-2.4-1.1-5.8-2.6-9.9-3.6c-5.3-1.3-9.4-1.5-12.3-1.6c-3.6-0.1-7.3,0-12.7,0.6
			c-10,1.2-17.6,3.1-18.8,3.5C770.2,562.2,755.3,565.5,731.7,570.2z M741.5,719.2l-1.8-75.9l3.8-2.3l7.5,42.5l-5.2,1.6l5.4,31.7
			L741.5,719.2z M707.5,752.6l-9.4-59.6l3.7-1l-8.2-49.1l8.6-2.3l8,49.8l3.1-0.5l10.3,59.7L707.5,752.6z M575.9,812.8l-43.4-138.7
			l68.3-18.3l70.6,131.4L575.9,812.8z M503.4,818.2l-32.3-120.7l44.1-16.7l42.6,134.3L503.4,818.2z"/>
		<path class="st5" d="M382.1,1050.6c1.6,3,4,7.5,8.7,11.8c1.8,1.7,5.6,5.1,11.7,7.2c3.9,1.3,7.4,1.7,9.7,1.8
			c95.7-25.6,191.4-51.3,287.1-76.9c2.8-4,6.7-10.9,7.9-20.1c1.1-9-0.9-16-2.5-21.5c-1.8-6.3-4-10.4-5-12.3c-2-3.7-4.1-7.3-8.2-10.8
			c-3.7-3.1-7.1-4.5-8.2-4.9c-2.9-1.1-5-1.4-9.9-1.9c-7.2-0.8-10.8-1.2-13.4-1.4c-7.6-0.5-15.2-1.5-22.8-2.1
			c-8.7-0.8-22.5-2.2-44.4-5.3c-50.2,13.4-100.3,26.8-150.5,40.2c-24.9,18.2-43.2,33.3-51.6,41.6c-3.2,3.1-7.4,7.6-10.5,14.3
			c-2.8,6.1-3.5,11.3-3.7,13.3C374.8,1036.4,379.8,1046.2,382.1,1050.6z M389.8,1030c-0.2-3.3-0.4-7.5,1.3-12.2
			c1.7-4.6,4.3-7.4,7.6-10.8c2.5-2.5,4-3.6,10.2-8.5c7.2-5.5,10.7-8.3,14.1-11c1.5-1.2,6.7-5.6,13.4-11c4.1-3.4,4.9-4,6.4-5
			c0.2-0.1,0.4-0.3,0.5-0.4c-1.8,3.9-2.2,9.2-0.8,14.6c2.6,9.6,10,15.9,16.5,14.2s9.8-10.9,7.2-20.6c-1.9-7-6.2-12.2-11-13.9
			c0.1,0,0.3-0.1,0.4-0.1c4.4-1.5,7.2-1.9,11.7-3c6.6-1.4,8.8-2.3,19.3-5.2c3.5-0.9,6.7-1.8,9.6-2.6c-3.2,3.8-4.3,10.5-2.5,17.3
			c2.6,9.6,10,15.9,16.5,14.2c6.6-1.8,9.8-10.9,7.2-20.6c-1.8-6.8-6-11.9-10.6-13.8c8-2,16.2-4,28.7-7.4c3.2-0.9,7.1-1.9,11.6-3.1
			c-2.9,3.9-3.9,10.3-2.1,16.9c2.6,9.6,10,15.9,16.5,14.2c6.6-1.8,9.8-10.9,7.2-20.6c-1.8-6.7-5.9-11.8-10.5-13.7
			c3.2-0.9,6.5-1.9,9.9-2.9c3.5,0.7,8.7,1.8,14.9,2.9c6,1,11.2,1.8,17.6,2.8c11.7,1.8,12.4,1.7,15.8,2.5c7.3,1.7,11.5,2.8,16,6.1
			c5.3,3.9,7.6,8.7,10.2,13.7c5.2,10.2,5.4,19.2,5.4,21c0.1,4.8-0.7,8.8-1.3,11.5c-4.5,1.2-9,2.4-13.5,3.6c3.2-6,4-14.9,1.6-24
			c-3.9-14.8-15-24.7-24.6-22.2c-9.6,2.6-14.2,16.7-10.2,31.5c2.4,9.1,7.5,16.4,13.3,20c-7.8,2.1-15.8,4.2-23.6,6.4
			c-127,34-149.4,40-153.3,41.1c0.6-1.3,1.1-2.9,1.4-5c0.3-2,0.2-3.7,0.1-5.1c51.7-13.8,103.2-27.5,154.9-41.4
			c-2.1-8.1-4.3-16.2-6.5-24.2c-51.4,13.8-102.7,27.5-154.1,41.3c-2.6-4.1-5.5-6.4-7.3-7.7c-2-1.3-4.2-2.9-7.5-3.3
			c-1.1-0.2-4.8-0.6-8.5,1.5c-3.3,1.8-4.8,4.5-6,6.5c-2.2,3.9-2.7,7.4-2.9,9.5c-0.5,4.4,0.2,7.5,1.2,11.9c0.8,3.8,1.7,7.5,4,11.9
			c0.4,0.7,2.6,4.6,6.5,8.2c0.5,0.4,0.9,0.8,1.2,1c-0.3,0-0.6,0-0.9,0c-1.5-0.1-3.6-0.3-6-1.2c-3.4-1.4-5.4-3.4-7.4-5.5
			c-1.7-1.7-4.7-5-6.8-10.3C390.1,1035.9,389.9,1032.6,389.8,1030z"/>
		<path class="st5" d="M1233,734.2c-9.8-22.3-18-40.8-24.1-54.5c-13.5-30.3-17.5-39.2-20.6-45.9c-10.1-21.9-17.1-36.1-20.3-42.9
			c-4.1-8.3-9.2-18-13.1-26.3c-4.6-9.6-7-15.2-12.8-21.9c-5.9-6.8-11.2-10-12.4-10.8c-2.4-1.4-8.5-4.8-17.1-6
			c-7-1-12.6-0.1-21.1,1.6c-19.2,4-29.7,7.4-29.7,7.4c-16.9,5.4-68.7,21.2-86.8,24.4c-1.1,0.2-5,0.9-9.5,3.1
			c-2.4,1.2-8.2,4.2-12.1,10.5c-0.6,1-2.8,4.6-4.1,13.7c-1.1,8.4-0.7,15.2,0.2,23.2c1.7,16,3.1,23.6,3.1,23.6
			c2.6,13.8,6.5,37.1,12.3,76.9c34.3,6.7,68.7,13.4,103.1,20.1c-1.6-4.4-3.9-10.8-7-18.5c-4.5-11.4-7.7-18.3-15.2-35.3
			c-10.4-23.4-8.2-18.6-16-36.2c-16.9-37.9-13.3-28.5-17.5-38.7c-3.8-9-5.4-13.3-9.3-19.6c-6.1-9.8-12.9-16.7-17.7-21.1
			c3.4,0.2,8.3,1.1,13.6,3.6c2.4,1.1,7.5,3.5,12,8.5c2.1,2.4,3.8,5.3,7,11c3.2,5.7,5.3,10.1,5.3,10.3c9.5,20.3-6.3-14.9,14.9,30.8
			c8,17.3,12,25.9,15.8,34.3c6.8,15,16.9,36.4,31.3,64.3c1.1-0.1,2.3-0.2,3.3-0.3c2.8,5.6,5.6,11.3,8.6,17c4.7,9.1,9.4,18,14,26.7
			c6.5-1.7,13.1-3.5,19.6-5.2c-1.9-4.8-3.9-9.6-5.9-14.5c-4.3-10.3-8.8-20.4-13.3-30.1c3-0.8,5.9-1.6,8.9-2.4
			c2.1,4.1,4.3,8.2,6.4,12.4c5.6,10.6,11.3,20.9,16.9,31.1c6.7-1.8,13.4-3.6,20.1-5.4c-2.3-6.3-5-12.8-7.8-19.5
			c-3.8-8.9-7.7-17.4-11.7-25.3c3.8-1,7.5-2,11.3-3c2.2,5,4.6,10,7.2,15.1c5,10,10,19.5,15.1,28.4c6.6-1.8,13.3-3.6,19.8-5.3
			c-2.6-5.7-5.1-11.5-7.6-17.5c-3.8-9.2-7.3-18.2-10.3-26.8c3.7-1,7.3-2,11-3c3,5.7,6.1,11.4,9.2,17.1c4.8,8.9,9.7,17.7,14.6,26.5
			C1220.8,737.9,1226.9,736.1,1233,734.2z"/>
	</g>
</g>
<rect x="404.1" y="974.1" transform="matrix(0.9614 -0.2753 0.2753 0.9614 -266.4192 284.3165)" class="st2" width="950.8" height="234"/>
<text transform="matrix(0.9614 -0.2753 0.2753 0.9614 562.1442 1240.7021)" class="st7 st8 st9">ИП ТАНИЕВ</text>
</svg>
