<svg height="480pt" viewBox="0 0 480 480" width="480pt" xmlns="http://www.w3.org/2000/svg" fill="#f7a311"><path d="m477.65625 178.34375-45.65625-45.65625v-4.6875c0-8.835938-7.164062-16-16-16v-24c0-4.417969-3.582031-8-8-8h-8v-56c0-13.253906-10.746094-24-24-24h-272c-13.253906 0-24 10.746094-24 24v76.6875l-77.65625 77.65625c-1.480469 1.507812-2.296875 3.542969-2.2734375 5.65625h-.0703125v272c0 13.253906 10.746094 24 24 24h432c13.253906 0 24-10.746094 24-24v-272c0-2.121094-.84375-4.15625-2.34375-5.65625zm-81.65625 221.65625h-8l-12-16h32zm20-272v16h-48v-16zm-48 240v-208h16v56h16v-56h16v208zm64-176h11.910156l-11.910156 7.382812zm-80 124.6875-30.105469-30.101562 30.105469-18.683594zm78.398438 64.113281c1.039062-1.386719 1.601562-3.070312 1.601562-4.800781v-157.792969l32-19.808593v230.289062l-39.726562-39.726562zm22.289062-204.800781h-20.6875v-20.6875zm-68.6875-64v-16h16v16zm-48-96v41.054688l-11.558594-7.710938c-2.691406-1.792969-6.191406-1.792969-8.882812 0l-11.558594 7.710938v-41.054688zm-232 0h184v56c0 2.949219 1.625 5.664062 4.226562 7.054688 2.601563 1.390624 5.757813 1.238281 8.214844-.398438l19.558594-13.054688 19.558594 13.039063c2.453125 1.636719 5.609375 1.789063 8.207031.402344 2.601563-1.386719 4.230469-4.09375 4.234375-7.042969v-56h24c4.417969 0 8 3.582031 8 8v56h-8c-4.417969 0-8 3.582031-8 8v24c-8.835938 0-16 7.164062-16 16v121.070312l-112 69.515626-144-89.378907v-205.207031c0-4.417969 3.582031-8 8-8zm-24 203.273438-43.945312-27.273438h43.945312zm-64-20.875 142.105469 88.1875-142.105469 142.101562zm64-75.070313v52.671875h-52.6875zm376 340.671875h-432c-4.417969 0-8-3.582031-8-8v-4.6875l156.0625-156.066406 63.722656 39.554687c2.582032 1.601563 5.847656 1.601563 8.429688 0l63.722656-39.554687 44.0625 44.066406v36.6875c0 1.730469.5625 3.414062 1.601562 4.800781l24 32c1.507813 2.011719 3.878907 3.199219 6.398438 3.199219v24c0 4.417969 3.582031 8 8 8s8-3.582031 8-8v-24c2.519531 0 4.890625-1.1875 6.398438-3.199219l8.175781-10.914062 49.425781 49.425781v4.6875c0 4.417969-3.582031 8-8 8zm0 0"/><path d="m128 48h32v16h-32zm0 0"/><path d="m176 48h64v16h-64zm0 0"/><path d="m128 80h128v16h-128zm0 0"/><path d="m128 112h48v16h-48zm0 0"/><path d="m192 112h144v16h-144zm0 0"/><path d="m128 144h112v16h-112zm0 0"/><path d="m256 144h80v16h-80zm0 0"/><path d="m128 176h160v16h-160zm0 0"/><path d="m304 176h32v16h-32zm0 0"/><path d="m128 208h128v16h-128zm0 0"/><path d="m272 208h64v16h-64zm0 0"/></svg>