<?xml version="1.0" encoding="utf-8"?>
<!-- Generator: Adobe Illustrator 24.1.2, SVG Export Plug-In . SVG Version: 6.00 Build 0)  -->
<svg version="1.1" xmlns="http://www.w3.org/2000/svg" xmlns:xlink="http://www.w3.org/1999/xlink" x="0px" y="0px"
	 viewBox="0 0 95.4 96.6" style="enable-background:new 0 0 95.4 96.6;" xml:space="preserve">
<path  d="M82.7,48.3c0-0.4,0-0.8,0-1.3l12.7-8.3L91.9,28l-15.1,0.8c-0.5-0.7-1-1.4-1.5-2l5.4-14.2l-9.2-6.7l-11.8,9.5
	c-0.8-0.3-1.6-0.5-2.4-0.8L53.4,0H42l-3.9,14.6c-0.8,0.2-1.6,0.5-2.4,0.8L23.9,5.9l-9.2,6.7l5.4,14.2c-0.5,0.7-1,1.3-1.5,2L3.5,28
	L0,38.8L12.7,47c0,0.4,0,0.8,0,1.3s0,0.8,0,1.3L0,57.8l3.5,10.8l15.1-0.8c0.5,0.7,1,1.4,1.5,2L14.7,84l9.2,6.7l11.8-9.5
	c0.8,0.3,1.6,0.5,2.4,0.8L42,96.6h11.4l3.9-14.6c0.8-0.2,1.6-0.5,2.4-0.8l11.8,9.5l9.2-6.7l-5.4-14.2c0.5-0.7,1-1.3,1.5-2l15.1,0.8
	l3.5-10.8l-12.7-8.3C82.7,49.1,82.7,48.7,82.7,48.3z M47.7,76.3c-15.5,0-28-12.5-28-28s12.5-28,28-28s28,12.5,28,28
	S63.1,76.3,47.7,76.3z" fill="#f7a311"/>
</svg>
