<?xml version="1.0" encoding="utf-8"?>
<!-- Generator: Adobe Illustrator 24.1.2, SVG Export Plug-In . SVG Version: 6.00 Build 0)  -->
<svg version="1.1" id="Слой_1" xmlns="http://www.w3.org/2000/svg" xmlns:xlink="http://www.w3.org/1999/xlink" x="0px" y="0px"
	 viewBox="0 0 21 21" style="enable-background:new 0 0 21 21;" xml:space="preserve">
<style type="text/css">
	.st0{stroke:#F7A311;stroke-miterlimit:10;}
	.st1{fill:#F7A311;stroke:#F7A311;stroke-miterlimit:10;}
</style>
<g>
	<circle class="st0" cx="10.5" cy="10.5" r="10"/>
</g>
<path id="XMLID_1_" class="st1" d="M10.3,6.8c-0.7,0-1.4,0-1.7,0.2C8.3,7.1,8.1,7.3,8.3,7.3c0.1,0,0.5,0.1,0.6,0.3
	c0.2,0.3,0.2,0.9,0.2,0.9s0.1,1.8-0.3,2c-0.3,0.2-0.7-0.2-1.5-1.6C6.9,8.3,6.6,7.5,6.6,7.5S6.5,7.3,6.4,7.2S6.1,7.1,6.1,7.1H4.2
	c0,0-0.3,0-0.4,0.1s0,0.3,0,0.3s1.5,3.6,3.3,5.4c1.6,1.7,3.4,1.5,3.4,1.5h0.8c0,0,0.2,0,0.4-0.2c0.1-0.1,0.1-0.4,0.1-0.4
	s0-1.1,0.5-1.3s1.2,1.1,1.8,1.5c0.5,0.4,0.9,0.3,0.9,0.3h1.8c0,0,1-0.1,0.5-0.8c0-0.1-0.2-0.5-1.3-1.6c-1.1-1.1-1-0.9,0.4-2.8
	C17.2,8,17.6,7.3,17.5,7c-0.1-0.3-0.7-0.2-0.7-0.2h-2.1c0,0-0.2,0-0.3,0.1s-0.2,0.2-0.2,0.2S13.9,8,13.4,8.7
	c-0.9,1.6-1.3,1.6-1.4,1.5c-0.3-0.2-0.3-0.9-0.3-1.4c0-1.5,0.2-2.1-0.4-2.3C11,6.8,10.9,6.8,10.3,6.8z"/>
</svg>
